<?xml version="1.0" encoding="UTF-8"?>
<!-- Created with Inkscape (http://www.inkscape.org/) -->
<svg version="1.1" viewBox="0 0 29.088 28.108" xmlns="http://www.w3.org/2000/svg" xmlns:cc="http://creativecommons.org/ns#" xmlns:dc="http://purl.org/dc/elements/1.1/" xmlns:rdf="http://www.w3.org/1999/02/22-rdf-syntax-ns#">
 <metadata>
  <rdf:RDF>
   <cc:Work rdf:about="">
    <dc:format>image/svg+xml</dc:format>
    <dc:type rdf:resource="http://purl.org/dc/dcmitype/StillImage"/>
    <dc:title/>
    <dc:title/>
   </cc:Work>
  </rdf:RDF>
 </metadata>
 <g transform="matrix(.85674 0 0 .85674 -54.606 -107.94)" stroke-width="1.1672">
  <g transform="matrix(1.0955 0 0 1.0955 -6.138 -20.754)" stroke-width="1.2436">
   <g transform="matrix(.26458 0 0 .26458 52.843 113.03)" stroke-width="1.2436">
    <path transform="matrix(.26458 0 0 .26458 19.922 55.685)" d="m0 0v604.72h604.72v-604.72zm367.48 142.52c0.22827-9e-3 0.4786-7e-3 0.75976 8e-3v2e-3c0.74978 0.0391 1.7062 0.15547 2.9648 0.31836 26.096 3.3768 57.825 15.616 82.648 31.881 11.375 7.4533 12.905 9.4099 22.789 29.133 21.265 42.434 36.896 98.232 44.426 157.87v45.609c-5.3782 6.0895-18.415 17.037-28.184 23.539-24.485 16.297-55.862 27.424-86.088 30.525-5.6135 0.576-10.522 0.68536-10.906 0.24414-3.1254-3.5884-13.006-17.387-13.006-18.164 0-0.53979 1.6876-1.523 3.75-2.1836 6.5031-2.0828 25.419-11.392 34.053-16.76 17.936-11.15 36.197-26.638 36.197-30.701 0-4.1454-2.9321-3.8003-11.416 1.3418-31.802 19.275-63.216 29.85-103.08 34.707-18.751 2.2847-57.896 2.3018-76 0.0332-40.518-5.0772-73.093-15.94-102.67-34.232-9.3266-5.7692-13.092-6.5302-13.631-2.7578-0.47588 3.3302 19.403 20.307 35.379 30.215 9.1219 5.6572 24.947 13.709 33.918 17.254 3.3 1.3042 6.1756 2.4884 6.3906 2.6328 0.21509 0.14426-2.8296 4.548-6.7676 9.7871-5.5088 7.3291-7.6739 9.495-9.3906 9.3926-30.364-1.8102-63.649-12.216-88.545-27.682-11.175-6.9421-19.039-13.078-29.057-22.67l-8.3691-8.0156 0.68164-12.5c3.6568-66.902 25.322-148.98 52.088-197.35 5.8134-10.505 6.6297-11.484 14.07-16.881 9.3235-6.763 31.231-18.245 44.396-23.27 11.113-4.2409 28.591-8.9392 39.002-10.484 7.1626-1.0632 7.5787-1.0173 9.25 1.0449 0.9625 1.1877 1.75 2.677 1.75 3.3086 0 0.63159-3.9375 2.1825-8.75 3.4473-22.401 5.8874-45.048 16.995-65.939 32.34-10.292 7.5594-11.93 9.6134-9.8906 12.402 1.2783 1.7482 1.7387 1.6528 9.7109-2.0059 49.493-22.714 77.421-29.723 124.54-31.256 51.704-1.6818 91.461 6.8596 141.55 30.41 8.0646 3.7916 9.9884 4.3576 11.25 3.3106 2.6699-2.2158 1.6589-4.4013-4.2324-9.1524-19.124-15.423-46.743-29.433-69.746-35.381-10.57-2.7331-10.837-2.9312-8.9356-6.6074 1.0045-1.9425 1.4333-2.6379 3.0313-2.7031zm-129.6 138.32c-8.9239 0-9.8838 0.20982-15.826 3.4316-7.6845 4.1663-12.336 9.3127-16.781 18.568-6.0434 12.582-6.1136 26.988-0.19141 39.412 5.3946 11.317 13.684 18.493 24.824 21.486 6.8272 1.8346 7.6537 1.8623 14.176 0.47852 15.845-3.362 27.765-16.894 30.816-34.982 0.96529-5.7227 0.89749-8.2331-0.39844-14.588-2.9475-14.454-9.7474-24.388-20.797-30.379-5.9367-3.2187-6.8999-3.4277-15.822-3.4277zm132 0c-8.9224 0-9.8837 0.20897-15.82 3.4277-11.05 5.9909-17.851 15.925-20.799 30.379-1.922 9.425-0.7487 18.294 3.6484 27.592 5.312 11.232 14.363 18.941 25.471 21.693 6.7234 1.6661 8.1308 1.6566 14.881-0.10156 7.6593-1.9951 13.71-5.6491 18.652-11.264 11.909-13.53 14.511-33.206 6.5762-49.727-4.4457-9.2556-9.0988-14.404-16.783-18.57-5.9424-3.2218-6.9023-3.4297-15.826-3.4297zm-369.89-280.84h604.72v604.72h-604.72z" stroke-width="1.2436"/>
   </g>
  </g>
 </g>
</svg>
