<?xml version="1.0" encoding="UTF-8"?>
<!-- Created with Inkscape (http://www.inkscape.org/) -->
<svg version="1.1" viewBox="0 0 73.5 32" xmlns="http://www.w3.org/2000/svg" xmlns:cc="http://creativecommons.org/ns#" xmlns:dc="http://purl.org/dc/elements/1.1/" xmlns:rdf="http://www.w3.org/1999/02/22-rdf-syntax-ns#">
 <metadata>
  <rdf:RDF>
   <cc:Work rdf:about="">
    <dc:format>image/svg+xml</dc:format>
    <dc:type rdf:resource="http://purl.org/dc/dcmitype/StillImage"/>
    <dc:title/>
   </cc:Work>
  </rdf:RDF>
 </metadata>
 <g transform="translate(-32.3 -117)">
  <g transform="matrix(.265 0 0 .265 95.5 104)">
   <path transform="translate(-273 -44.9)" d="m204 96.4c-8.73 0-21.1 2.81-24 5.45l-0.941 0.865-0.0762 55.3c-0.0415 30.4-8e-3 55.6 0.0762 56.1 0.189 1.06 1.3 2.41 2.37 2.88 1.22 0.533 97.9 0.535 101 2e-3 5.1-0.828 10.3-2.9 14.5-5.77 2.48-1.71 6.11-5.24 7.96-7.76 1.74-2.36 4.03-6.79 4.91-9.52 2.8-8.61 2.12-18.2-1.83-26.1-7.64-15.2-25.3-22.6-41.2-17.3-1.13 0.378-2.22 0.626-2.41 0.553-0.213-0.0819-0.42-0.834-0.533-1.94-0.277-2.71-1.41-7.77-2.42-10.9-8.21-25.1-31.3-41.9-57.6-41.9zm-31.8 8.05c-1.75-0.0897-3.67 1.34-3.96 3.12-0.0774 0.476-0.478 18.2-0.889 39.4l-0.219 38.6 0.189 13c0.235 16.1 0.866 15.9 1.46 16.8 1.04 1.58 3.22 2.18 4.86 1.32 1.02-0.53 1.81-1.69 1.99-2.94 0.0801-0.567 0.51-7.16 0.955-14.7l0.281-24.7-0.291-27.4c-0.225-21.2-0.883-38.9-0.959-39.4-0.182-1.14-1.49-2.59-2.67-2.99-0.237-0.0781-0.483-0.122-0.732-0.135zm-11.8 6.69c-1.21-0.0342-2.47 0.574-3.21 1.84-0.419 0.715-0.516 3.86-1.14 36.6l-0.684 35.8 0.693 14.6c0.715 15 0.756 15.4 1.9 16.4 1.09 0.983 2.29 1.2 3.62 0.641 1.18-0.492 1.96-1.56 2.14-2.89 0.0791-0.608 0.461-7.24 0.848-14.7l-0.223-14 0.195-35.3c0.181-32.9-0.771-35.8-1.21-36.8-0.56-1.3-1.73-1.97-2.94-2.01zm-35.1 8.09c-0.149 8e-5 -0.297 0.0135-0.443 0.041-1.28 0.239-2.16 1.42-2.34 3.12-0.0775 0.765-0.511 15.3-0.963 32.2l-0.26 31.2 0.248 13.3c0.319 17 0.936 16.3 1.88 17.2 1.05 1.05 2.78 1.06 3.74 0.0195 0.37-0.4 0.737-0.911 0.814-1.13 0.0778-0.224 0.592-7.03 1.14-15.1l0.346-14-0.34-32.6c-0.251-24-1.08-32-1.35-32.7-0.397-0.949-1.44-1.6-2.48-1.6zm11.7 1.41c-1.25-0.0413-2.52 0.69-2.95 2.1-0.21 0.697-0.568 11.1-1.1 32l-0.316 31.6 0.277 12.6c0.358 16.3 0.902 16.1 1.42 16.8 1 1.43 3.05 1.71 4.37 0.602 0.46-0.387 0.914-1.1 1.05-1.65 0.132-0.535 0.63-7.46 1.11-15.4l0.494-14-0.549-31.3c-0.467-26.6-0.983-31.1-1.35-31.8-0.531-1.01-1.49-1.51-2.46-1.54zm-23 0.891c-1.01 0-2.12 0.68-2.45 1.51-0.191 0.478-0.632 11.6-1.25 31.5l-0.576 31.3 0.576 14.2c0.331 8.13 1.08 15.1 1.25 15.5 0.654 1.64 2.56 2.02 3.93 0.783 0.978-0.882 0.811 0.492 2.09-17.2l0.25-13.2-0.246-29.4c-0.133-15.8-1.04-29.9-1.1-31.2-0.101-2.26-0.139-2.38-0.951-3.11-0.466-0.416-1.15-0.756-1.52-0.756zm34.4 1.14c-0.419 0.0211-0.843 0.125-1.25 0.32-1.93 0.918-1.76-1.11-2.61 31.6l-0.393 30.4 0.318 13.5c0.187 7.94 0.758 14.9 0.836 15.5 0.333 2.63 3.03 3.93 5.14 2.46 1.32-0.918 1.35-1.19 2.24-16.6l0.281-14.5-0.273-30.2c-0.177-19.5-0.938-30.3-1.12-30.6-0.689-1.27-1.9-1.97-3.16-1.9zm-45.8 3.94c-1-0.0601-2.03 0.46-2.32 1.61-0.0798 0.323-0.604 13.3-1.17 28.8l-0.648 28.5 0.654 14.6c0.368 8.19 1.17 15.2 1.33 15.6 0.38 0.922 0.903 1.23 2.1 1.24 0.671 6e-3 1.12-0.182 1.56-0.646 0.702-0.747 0.658-0.33 2.15-19.9l0.307-10.9-0.553-28.4c-0.299-15.4-1.18-28.3-1.25-28.8-0.188-1.18-1.17-1.81-2.17-1.88zm-11.4 10.6c-0.657 6e-3 -1.38 0.387-1.77 1-0.31 0.485-0.61 5.29-1.49 23.8l-0.35 23.6 0.336 14.5c0.189 8.21 1.21 15.2 1.38 15.6 0.541 1.36 2.18 1.69 3.23 0.643 0.733-0.733 0.614 0.286 2.05-17.4l0.566-13.2-0.678-23.8c-0.703-24.7-1.25-24-2.65-24.7-0.19-0.0867-0.402-0.125-0.621-0.123zm-22.4 16c-1.5 0-1.47-0.185-2.82 16.5l-0.414 15.7 0.432 14.8c0.24 8.28 1.28 15 1.29 15.1 0.0104 0.026 0.207 0.234 0.436 0.463 0.625 0.625 1.88 0.528 2.34-0.18 0.275-0.424 0.773-4.68 1.73-14.8 0.737-7.79 0.872-14.5 0.871-15.3-5.3e-4 -0.843-0.128-8.35-0.855-16.2-0.728-7.88-1.32-14.5-1.32-14.7 0-0.569-1-1.41-1.68-1.41zm-10.8 1.07c-0.374-0.0389-0.776 0.0824-1.07 0.377-0.499 0.499-0.488 0.402-1.91 16.7l-0.406 14.2 0.406 12.9c0.501 15.9 1.41 15.7 1.91 16.2 0.504 0.504 1.26 0.497 1.78-0.0156 0.223-0.223 0.469-0.788 0.547-1.26 0.373-2.25 1.73-26.5 1.72-28-0.0149-2.81-1.73-30-2.07-30.6-0.184-0.344-0.53-0.543-0.904-0.582zm22 0.781c-0.251 0-0.767 0.268-1.15 0.596l-0.691 0.594-1.19 14.4-0.348 15.1 0.232 13.4c0.293 16.8 1.25 16.5 1.91 17.1 0.707 0.707 2.01 0.554 2.62-0.309 0.394-0.554 0.685-3.12 1.79-15.7l0.287-14.9-0.256-13.9c-0.139-7.6-1.35-14.1-1.44-14.6-0.163-0.889-0.986-1.66-1.77-1.66zm-33 4.07c-0.158-0.0313-0.321 0.0205-0.549 0.143-0.307 0.164-0.617 0.562-0.689 0.885-0.0726 0.323-0.73 6.07-1.46 12.8l-0.135 12.3 0.143 12c0.0802 6.73 1.45 12.4 1.58 12.8 0.282 0.679 1.34 0.813 1.82 0.23 0.167-0.201 1.01-5.9 1.87-12.7l0.51-12-0.502-12.9c-0.425-10.9-1.63-12.7-2.07-13.1-0.209-0.209-0.363-0.322-0.521-0.354zm-10.5 9.7c-0.348-0.013-0.685 0.0767-0.807 0.273-0.0958 0.155-0.642 3.82-1.21 8.13l-0.381 7.86 0.297 7.41c0.526 4.07 1.08 7.73 1.23 8.13 0.302 0.798 1.25 0.998 1.76 0.375 0.161-0.194 0.843-3.84 1.52-8.09l0.164-7.61-0.172-7.97c-0.0937-4.36-1.36-7.99-1.52-8.18-0.172-0.208-0.533-0.323-0.881-0.336z" style="paint-order:markers stroke fill"/>
  </g>
 </g>
</svg>
