<?xml version="1.0" encoding="UTF-8" standalone="no"?>
<!-- Created with Inkscape (http://www.inkscape.org/) -->

<svg
   xmlns:dc="http://purl.org/dc/elements/1.1/"
   xmlns:cc="http://creativecommons.org/ns#"
   xmlns:rdf="http://www.w3.org/1999/02/22-rdf-syntax-ns#"
   xmlns:svg="http://www.w3.org/2000/svg"
   xmlns="http://www.w3.org/2000/svg"
   xmlns:sodipodi="http://sodipodi.sourceforge.net/DTD/sodipodi-0.dtd"
   xmlns:inkscape="http://www.inkscape.org/namespaces/inkscape"
   width="54.186668mm"
   height="54.186668mm"
   viewBox="0 0 54.186668 54.186669"
   version="1.1"
   id="svg8"
   sodipodi:docname="twitter.svg"
   inkscape:version="0.92.4 (5da689c313, 2019-01-14)">
  <defs
     id="defs2" />
  <sodipodi:namedview
     id="base"
     pagecolor="#434343"
     bordercolor="#666666"
     borderopacity="1.0"
     inkscape:pageopacity="0"
     inkscape:pageshadow="2"
     inkscape:zoom="8"
     inkscape:cx="212.63033"
     inkscape:cy="214.01947"
     inkscape:document-units="mm"
     inkscape:current-layer="layer1"
     showgrid="false"
     inkscape:window-width="1440"
     inkscape:window-height="847"
     inkscape:window-x="1358"
     inkscape:window-y="-8"
     inkscape:window-maximized="1" />
  <metadata
     id="metadata5">
    <rdf:RDF>
      <cc:Work
         rdf:about="">
        <dc:format>image/svg+xml</dc:format>
        <dc:type
           rdf:resource="http://purl.org/dc/dcmitype/StillImage" />
        <dc:title></dc:title>
      </cc:Work>
    </rdf:RDF>
  </metadata>
  <g
     inkscape:label="Layer 1"
     inkscape:groupmode="layer"
     id="layer1"
     transform="translate(-144.22133,-111.21615)">
    <flowRoot
       xml:space="preserve"
       id="flowRoot6921"
       style="font-style:normal;font-weight:normal;font-size:40px;line-height:1.25;font-family:sans-serif;letter-spacing:0px;word-spacing:0px;fill:#000000;fill-opacity:1;stroke:none"
       transform="matrix(0.26458333,0,0,0.26458333,115.33466,128.70574)"><flowRegion
         id="flowRegion6923"><rect
           id="rect6925"
           width="144.24979"
           height="123.03658"
           x="234.75945"
           y="73.195915" /></flowRegion><flowPara
         id="flowPara6927"></flowPara></flowRoot>    <text
       xml:space="preserve"
       style="font-style:normal;font-weight:normal;font-size:10.58333302px;line-height:1.25;font-family:sans-serif;letter-spacing:0px;word-spacing:0px;fill:#000000;fill-opacity:1;stroke:none;stroke-width:0.26458332"
       x="196.15697"
       y="168.65192"
       id="text6931"><tspan
         sodipodi:role="line"
         id="tspan6929"
         x="196.15697"
         y="178.30742"
         style="stroke-width:0.26458332" /></text>
    <path
       style="fill:#27a9e0;stroke-width:0.08466667"
       d="m 144.22133,138.30948 v -27.09333 h 27.09333 27.09334 v 27.09333 27.09334 h -27.09334 -27.09333 z m 23.41033,14.51312 c 1.19643,-0.15141 1.75369,-0.28083 3.85234,-0.8947 1.93334,-0.56551 5.48222,-2.53988 6.604,-3.67404 0.20955,-0.21187 0.4953,-0.4579 0.635,-0.54674 0.32065,-0.20393 1.58552,-1.56891 2.16558,-2.337 0.24242,-0.321 0.51233,-0.65984 0.59979,-0.75297 0.20271,-0.21585 1.00229,-1.46231 1.00229,-1.56245 0,-0.0416 0.0935,-0.18667 0.20777,-0.32248 0.25204,-0.29953 0.78938,-1.36235 1.14862,-2.2719 0.14537,-0.36804 0.31619,-0.74965 0.37961,-0.84802 0.26733,-0.41465 0.6733,-1.88119 1.15753,-4.18148 0.21672,-1.02954 0.26449,-1.47363 0.296,-2.75167 0.0228,-0.92484 0.0769,-1.6032 0.13752,-1.72544 0.055,-0.11079 0.36015,-0.40503 0.67817,-0.65387 1.27399,-0.99683 3.18915,-3.29519 2.53528,-3.04256 -0.47846,0.18486 -1.28469,0.4325 -2.13783,0.65665 -1.66923,0.43858 -1.74999,0.41993 -0.93939,-0.21691 0.72008,-0.56573 1.51331,-1.54905 1.97577,-2.44924 0.22075,-0.42971 0.40173,-0.80987 0.40216,-0.8448 0.002,-0.12211 -0.29835,-0.0598 -0.63421,0.13166 -0.18626,0.10622 -0.66251,0.32144 -1.05833,0.47828 -0.39582,0.15683 -0.76288,0.31812 -0.8157,0.35842 -0.11356,0.0867 -1.37147,0.44993 -1.83932,0.53119 -0.30509,0.053 -0.34986,0.0326 -0.67733,-0.309 -0.66231,-0.69083 -2.31746,-1.58125 -3.3725,-1.81431 -0.38197,-0.0844 -1.02388,-0.13762 -1.67715,-0.13912 -1.40169,-0.003 -2.18749,0.18958 -3.41771,0.83853 -2.10306,1.10937 -3.50256,3.03465 -3.86847,5.32185 -0.0522,0.32597 -0.0819,1.10702 -0.0661,1.73567 l 0.0287,1.143 -0.635,-0.0228 c -0.88912,-0.0319 -2.16747,-0.23379 -2.98766,-0.47178 -0.38243,-0.11096 -1.01919,-0.28951 -1.415,-0.39677 -0.84748,-0.22964 -2.44303,-0.82366 -2.62467,-0.97715 -0.0699,-0.059 -0.41275,-0.24166 -0.762,-0.40585 -1.1908,-0.5598 -2.88339,-1.65983 -3.61443,-2.34903 -0.24169,-0.22786 -0.47218,-0.41429 -0.51221,-0.41429 -0.12397,0 -2.13767,-2.03843 -2.27384,-2.30176 -0.0929,-0.17966 -0.18017,-0.2414 -0.31424,-0.22232 -0.14572,0.0207 -0.24596,0.17761 -0.46637,0.72988 -0.41801,1.04734 -0.54946,1.88236 -0.50222,3.19024 0.0567,1.57082 0.37971,2.62994 1.12412,3.68629 0.17958,0.25484 0.43723,0.62685 0.57256,0.82669 0.13532,0.19983 0.44905,0.51331 0.69717,0.69662 0.51234,0.37848 0.59137,0.47268 0.44181,0.5266 -0.18575,0.067 -1.37665,-0.17716 -1.97808,-0.40549 -0.32043,-0.12166 -0.67439,-0.24274 -0.78658,-0.26908 l -0.20397,-0.0479 0.0551,0.65168 c 0.0695,0.82215 0.33325,1.86341 0.63032,2.48846 0.43754,0.92061 1.30388,1.99126 2.15343,2.66129 0.76454,0.60299 1.83319,1.17418 2.42077,1.2939 0.15601,0.0318 0.26521,0.1003 0.247,0.15495 -0.0515,0.15445 -0.86814,0.24219 -1.86015,0.19983 l -0.91017,-0.0389 v 0.20318 c 0,0.30474 0.73899,1.71832 1.10034,2.10479 0.17416,0.18627 0.47273,0.51292 0.6635,0.7259 0.41859,0.46732 1.85783,1.38576 2.58539,1.64985 0.47734,0.17327 0.91876,0.273 1.85804,0.41982 0.17762,0.0278 0.31097,0.0826 0.29633,0.12184 -0.16082,0.43138 -3.14838,2.02216 -4.51393,2.40353 -1.62973,0.45515 -3.69727,0.70598 -5.05175,0.61288 -1.44236,-0.0991 -1.28519,0.0421 1.53808,1.38272 0.11642,0.0553 0.34502,0.1729 0.508,0.26137 0.62075,0.33697 3.59805,1.20726 4.80234,1.40377 1.85483,0.30265 4.36345,0.33019 6.41599,0.0704 z"
       id="path7024"
       inkscape:connector-curvature="0" />
  </g>
</svg>
