<?xml version="1.0" encoding="UTF-8"?>
<!-- Created with Inkscape (http://www.inkscape.org/) -->
<svg version="1.1" viewBox="0 0 62.1 43.7" xmlns="http://www.w3.org/2000/svg" xmlns:cc="http://creativecommons.org/ns#" xmlns:dc="http://purl.org/dc/elements/1.1/" xmlns:rdf="http://www.w3.org/1999/02/22-rdf-syntax-ns#">
 <defs>
  <clipPath id="clipPath899">
   <path d="m0 192h192v-192h-192z"/>
  </clipPath>
 </defs>
 <metadata>
  <rdf:RDF>
   <cc:Work rdf:about="">
    <dc:format>image/svg+xml</dc:format>
    <dc:type rdf:resource="http://purl.org/dc/dcmitype/StillImage"/>
    <dc:title/>
   </cc:Work>
  </rdf:RDF>
 </metadata>
 <g transform="translate(-39.7 -113)">
  <g transform="matrix(.353 0 0 -.353 36.8 169)">
   <g>
    <g clip-path="url(#clipPath899)">
     <g transform="translate(78 69.8)">
      <path d="m0 0v52.3l46-26.2zm102 68.8c-2.02 7.62-7.99 13.6-15.6 15.7-13.7 3.7-68.8 3.7-68.8 3.7s-55 0-68.8-3.7c-7.57-2.04-13.5-8.04-15.6-15.7-3.68-13.8-3.68-42.6-3.68-42.6s0-28.8 3.68-42.6c2.02-7.62 7.99-13.6 15.6-15.7 13.7-3.7 68.8-3.7 68.8-3.7s55 0 68.8 3.7c7.57 2.04 13.5 8.04 15.6 15.7 3.68 13.8 3.68 42.6 3.68 42.6s0 28.8-3.68 42.6"/>
     </g>
    </g>
   </g>
  </g>
 </g>
</svg>
