<?xml version="1.0" encoding="utf-8"?>
<!-- Generator: Adobe Illustrator 23.0.4, SVG Export Plug-In . SVG Version: 6.00 Build 0)  -->
<svg version="1.1" id="Ebene_1" xmlns="http://www.w3.org/2000/svg" xmlns:xlink="http://www.w3.org/1999/xlink" x="0px" y="0px"
	 viewBox="0 0 105 54" style="enable-background:new 0 0 105 54;" xml:space="preserve">
<style type="text/css">
	.st0{fill:#FFFFFF;}
</style>
<path class="st0" d="M79.24,3.06c-12.34,0-19.64,6.55-22.06,9.07c-0.44,0.46-0.41,1.2,0.07,1.63l11.04,9.88
	c0.43,0.39,1.09,0.39,1.52-0.01c1.3-1.22,4.42-3.51,9.43-3.51c6.88,0,6.82,7.74,6.82,7.74c0,0.07-0.08,6.82-6.82,6.82
	c-3.17,0-6.88-1.02-12.35-5.67c-3.18-2.71-3.78-3.35-7.64-6.98C55.4,18.4,41.15,3.06,26.34,3.06c-14.95,0-23.88,12.14-23.88,23.87
	c0,3.31,0.61,9.72,4.73,15.49c4.28,6,11.08,9.31,19.15,9.31c12.34,0,19.62-6.09,22.05-8.5c0.45-0.45,0.43-1.19-0.03-1.63l-10.59-9.9
	c-0.4-0.38-1.01-0.4-1.45-0.08c-1.42,1.03-4.85,3.04-9.89,3.06c-0.06,0-0.11,0-0.17-0.01c-0.79-0.1-6.71-1.1-6.73-7.69
	c0-0.03,0-0.06,0-0.09c0.03-0.62,0.45-6.77,6.82-6.77c7.49,0,14.83,7.94,20.31,13.4c7.93,7.9,17.39,18.69,32.59,18.21
	c14.94-0.47,23.88-12.14,23.88-23.87c0-3.31-0.61-9.72-4.73-15.49C94.11,6.36,87.31,3.06,79.24,3.06z"/>
</svg>
